# xmcd CD database file
#
# Track frame offsets:
#	183
#	22870
#	46720
#	73945
#	102233
#	126370
#	154958
#	176108
#	203595
#
# Disc length: 2999 seconds
#
# Revision: 0
# Processed by: cddbd v1.5.1PL0 Copyright (c) Steve Scherf et al.
# Submitted via: CDex 1.51
#
DISCID=760bb509
DTITLE=Sampler - Sin Embargo Te Quiero
DYEAR=1996
DGENRE=Salsa
TTITLE0=Juan Formell Y Los Van Van - Mandalo Y Ven
TTITLE1=Jose Louis Cortes Y NG La Banda - Que Es Esto?
TTITLE2=Manolin, El Medico De La Salsa - Dicen Que Soy Un Farandulero
TTITLE3=Pachito Alonso Y Sus Kini Kini - Yo Siempre Tengo Lo Que Tu Necesitas
TTITLE4=Elio Reve Y Su Charangon - Mi Salsa Tiene Sandunga
TTITLE5=Juan Formell Y Los Van Van - Hierbero Ven
TTITLE6=Issac Delgado - Esto Esta Bueno
TTITLE7=Valentin Y Su Grupo - El Pegao
TTITLE8=Salsa D'Esquina - Se Solto La Loca
EXTD=YEAR: 1996
EXTT0=
EXTT1=
EXTT2=
EXTT3=
EXTT4=
EXTT5=
EXTT6=
EXTT7=
EXTT8=
PLAYORDER=
